<svg xmlns="http://www.w3.org/2000/svg" width="512" height="512" style="overflow: visible;" viewBox="0 0 512 512" data-svgdocument="" id="_b-z9g4MXe03GV6lDyzfbT" class="fl-svgdocument" x="0" y="0" xmlns:xlink="http://www.w3.org/1999/xlink" overflow="hidden" data-bbox="53.087935045556165 219.68263374626818 240.13156041725676 89.67224846926152"><defs id="_3oyE8vjLEInNXiamIYPIN" transform="matrix(0.7252333164215088, 0, 0, 0.7252333164215088, -20.373790740966797, 203.88809204101562)" data-uid="o_f02mmcfd2_6"><linearGradient x1="26.52%" y1="5.87%" x2="73.48%" y2="94.13%" id="o_f02mmcfd2_4" gradientUnits="objectBoundingBox" data-uid="o_f02mmcfd2_13"><stop offset="0%" stop-color="rgb(100, 195, 246)" stop-opacity="1.00" data-uid="o_f02mmcfd2_14"></stop><stop offset="0%" stop-color="rgb(152, 214, 248)" stop-opacity="1.00" data-uid="o_f02mmcfd2_15"></stop><stop offset="0%" stop-color="rgb(61, 177, 242)" stop-opacity="1.00" data-uid="o_f02mmcfd2_16"></stop><stop offset="46%" stop-color="rgb(156, 212, 240)" stop-opacity="1.00" data-uid="o_f02mmcfd2_17"></stop><stop offset="76%" stop-color="rgb(255, 166, 0)" stop-opacity="1.00" data-uid="o_f02mmcfd2_18"></stop></linearGradient><linearGradient x1="26.52%" y1="5.87%" x2="73.48%" y2="94.13%" id="o_f02mmcfd2_4" gradientUnits="objectBoundingBox" data-uid="o_f02mmcfd2_13"><stop offset="0%" stop-color="rgb(100, 195, 246)" stop-opacity="1.00" data-uid="o_f02mmcfd2_14"></stop><stop offset="0%" stop-color="rgb(152, 214, 248)" stop-opacity="1.00" data-uid="o_f02mmcfd2_15"></stop><stop offset="0%" stop-color="rgb(61, 177, 242)" stop-opacity="1.00" data-uid="o_f02mmcfd2_16"></stop><stop offset="46%" stop-color="rgb(156, 212, 240)" stop-opacity="1.00" data-uid="o_f02mmcfd2_17"></stop><stop offset="76%" stop-color="rgb(255, 166, 0)" stop-opacity="1.00" data-uid="o_f02mmcfd2_18"></stop></linearGradient><linearGradient x1="26.52%" y1="5.87%" x2="73.48%" y2="94.13%" id="o_f02mmcfd2_4" gradientUnits="objectBoundingBox" data-uid="o_f02mmcfd2_13"><stop offset="0%" stop-color="rgb(100, 195, 246)" stop-opacity="1.00" data-uid="o_f02mmcfd2_14"></stop><stop offset="0%" stop-color="rgb(152, 214, 248)" stop-opacity="1.00" data-uid="o_f02mmcfd2_15"></stop><stop offset="0%" stop-color="rgb(61, 177, 242)" stop-opacity="1.00" data-uid="o_f02mmcfd2_16"></stop><stop offset="46%" stop-color="rgb(156, 212, 240)" stop-opacity="1.00" data-uid="o_f02mmcfd2_17"></stop><stop offset="76%" stop-color="rgb(255, 166, 0)" stop-opacity="1.00" data-uid="o_f02mmcfd2_18"></stop></linearGradient></defs><path id="_vgKlh1wx10sBi10lCL9a2" fill="url(&quot;#o_f02mmcfd2_4&quot;)" transform="matrix(0.5072820782661438, 0, 0, 0.5072820782661438, 53.08793640136719, 219.68263244628906)" data-type="circle" data-cx="88.385" data-cy="88.385" data-r="88.385" d="M88.385,88.385m-88.385,0a88.385,88.385 0 1, 0 176.77,0a88.385,88.385 0 1, 0 -176.77,0" data-uid="o_f02mmcfd2_19"></path><path text="E" text-anchor="middle" font-size="100" letter-spacing="0" side="left" offset="0.5" dx="0" dy="0" space="preserve" href="" font-family="DM Sans" font-scale="contain" transform="matrix(0.43302884697914124, 0, 0, 0.43302884697914124, 80.9951171875, 268.7760925292969)" x="0" y="0" fill="#FFFFFF" font-weight="400" data-fl-textpath="" id="_u1eRtxDOyJrreaCO0hGzj" font-style="normal" data-uid="o_f02mmcfd2_20" d="M 22.5 0L-20.800000000000004 0L-20.800000000000004-70L 22.5-70L 22.5-63.1L-12.400000000000002-63.1L-12.400000000000002-38.7L 19.5-38.7L 19.5-31.9L-12.400000000000002-31.9L-12.400000000000002-6.9L 22.5-6.9L 22.5 0Z"></path><path text="W" text-anchor="middle" font-size="100" letter-spacing="0" side="left" offset="0.5" dx="0" dy="0" space="preserve" href="" font-family="DM Sans" font-scale="contain" transform="matrix(0.43302884697914124, 0, 0, 0.43302884697914124, 110.5493392944336, 286.31201171875)" x="0" y="0" fill="#FFFFFF" font-weight="400" data-fl-textpath="" id="_Xw8mlblwjSTMo5aPU2StE" font-style="normal" data-uid="o_f02mmcfd2_21" d="M-17.150000000000002 0L-26.55 0.1L-45.75-70L-36.75-70L-21.650000000000002-9.9L-4.450000000000003-70L 4.850000000000001-70L 21.550000000000004-9.9L 36.85-70L 45.85-70L 26.249999999999993 0L 16.65 0L-0.05000000000000426-57.8L-17.150000000000002 0Z"></path><path id="_c4ATfoP_pXY9mcZJmxvKz" d="M50,95.646c24.854,0,45-20.147,45-45s-20.146-45-45-45s-45,20.147-45,45S25.146,95.646,50,95.646z M50,6.646  c24.262,0,44,19.738,44,44s-19.738,44-44,44s-44-19.738-44-44S25.738,6.646,50,6.646z" fill="#CCCCCC" transform="matrix(0.9963582754135132, 0, 0, 0.9963582754135132, 48.106143951416016, 214.05718994140625)" data-uid="o_f02mmcfd2_22"></path><path text="Event" text-anchor="start" font-size="100" letter-spacing="0" side="left" offset="0" dx="0" dy="0" space="preserve" href="" font-family="Montserrat" font-scale="contain" transform="matrix(0.5175758600234985, 0, 0, 0.5175758600234985, 138.4643096923828, 264.1047058105469)" x="0" y="0" fill="#FFA600" font-weight="700" data-fl-textpath="" id="_9rtZZtw5yf1fFgTHFcma7" data-uid="o_f02mmcfd2_23" d="M 24.4-13L 62.5-13L 62.5 0L 8.3 0L 8.3-70L 61.2-70L 61.2-57L 24.4-57L 24.4-41.8L 56.9-41.8L 56.9-29.2L 24.4-29.2L 24.4-13ZM 112.20000000000002-53.8L 127.20000000000002-53.8L 104.5 0L 88.4 0L 65.80000000000001-53.8L 81.9-53.8L 96.80000000000001-17.2L 112.20000000000002-53.8ZM 184.8-26.7Q 184.8-26.4  184.50000000000003-22.5L 184.50000000000003-22.5L 143.8-22.5Q 144.90000000000003-17.5  149.00000000000003-14.6Q 153.10000000000002-11.7  159.20000000000002-11.7L 159.20000000000002-11.7Q 163.40000000000003-11.7  166.65000000000003-12.95Q 169.90000000000003-14.2  172.70000000000002-16.9L 172.70000000000002-16.9L 181.00000000000003-7.9Q 173.40000000000003 0.8  158.8 0.8L 158.8 0.8Q 149.70000000000002 0.8  142.70000000000002-2.75Q 135.70000000000002-6.3  131.90000000000003-12.6Q 128.10000000000002-18.9  128.10000000000002-26.9L 128.10000000000002-26.9Q 128.10000000000002-34.8  131.85000000000002-41.15Q 135.60000000000002-47.5  142.15000000000003-51.05Q 148.70000000000002-54.6  156.8-54.6L 156.8-54.6Q 164.70000000000002-54.6  171.10000000000002-51.2Q 177.50000000000003-47.8  181.15000000000003-41.45Q 184.8-35.1  184.8-26.7L 184.8-26.7ZM 156.90000000000003-42.8Q 151.60000000000002-42.8  148.00000000000003-39.8Q 144.40000000000003-36.8  143.60000000000002-31.6L 143.60000000000002-31.6L 170.10000000000002-31.6Q 169.3-36.7  165.70000000000002-39.75Q 162.10000000000002-42.8  156.90000000000003-42.8L 156.90000000000003-42.8ZM 227.9-54.6Q 237.9-54.6  244.05-48.6Q 250.2-42.6  250.2-30.8L 250.2-30.8L 250.2 0L 234.6 0L 234.6-28.4Q 234.6-34.8  231.8-37.95Q 229-41.1  223.7-41.1L 223.7-41.1Q 217.8-41.1  214.3-37.45Q 210.8-33.8  210.8-26.6L 210.8-26.6L 210.8 0L 195.2 0L 195.2-53.8L 210.1-53.8L 210.1-47.5Q 213.2-50.9  217.8-52.75Q 222.4-54.6  227.9-54.6L 227.9-54.6ZM 294.8-13.6L 299-2.6Q 296.70000000000005-0.9  293.35-0.05Q 290 0.8  286.3 0.8L 286.3 0.8Q 276.70000000000005 0.8  271.45000000000005-4.1Q 266.20000000000005-9  266.20000000000005-18.5L 266.20000000000005-18.5L 266.20000000000005-40.6L 257.90000000000003-40.6L 257.90000000000003-52.6L 266.20000000000005-52.6L 266.20000000000005-65.7L 281.8-65.7L 281.8-52.6L 295.20000000000005-52.6L 295.20000000000005-40.6L 281.8-40.6L 281.8-18.7Q 281.8-15.3  283.55-13.45Q 285.3-11.6  288.5-11.6L 288.5-11.6Q 292.20000000000005-11.6  294.8-13.6L 294.8-13.6Z"></path><path text="Wild" text-anchor="start" font-size="100" letter-spacing="0" side="left" offset="0" dx="0" dy="0" space="preserve" href="" font-family="Montserrat" font-scale="contain" transform="matrix(0.4783221185207367, 0, 0, 0.4783221185207367, 153.90997314453125, 302.1627197265625)" x="0" y="0" fill="#64C3F6" font-weight="700" data-fl-textpath="" id="_TF3Fd9YdL6EsLid7_bB5D" data-uid="o_f02mmcfd2_24" d="M 98.6-70L 114.1-70L 91.2 0L 73.8 0L 58.4-47.4L 42.5 0L 25.2 0L 2.2-70L 19-70L 34.8-20.8L 51.3-70L 66.3-70L 82.3-20.4L 98.6-70ZM 123.00000000000003 0L 123.00000000000003-53.8L 138.60000000000002-53.8L 138.60000000000002 0L 123.00000000000003 0ZM 130.8-61.3Q 126.50000000000003-61.3  123.80000000000003-63.8Q 121.10000000000002-66.3  121.10000000000002-70L 121.10000000000002-70Q 121.10000000000002-73.7  123.80000000000003-76.2Q 126.50000000000003-78.7  130.8-78.7L 130.8-78.7Q 135.10000000000002-78.7  137.8-76.3Q 140.50000000000003-73.9  140.50000000000003-70.3L 140.50000000000003-70.3Q 140.50000000000003-66.4  137.8-63.85Q 135.10000000000002-61.3  130.8-61.3L 130.8-61.3ZM 153.1 0L 153.1-74.2L 168.70000000000002-74.2L 168.70000000000002 0L 153.1 0ZM 222.4-74.2L 238-74.2L 238 0L 223.1 0L 223.1-6.2Q 217.3 0.8  206.3 0.8L 206.3 0.8Q 198.7 0.8  192.55-2.6Q 186.4-6  182.9-12.3Q 179.4-18.6  179.4-26.9L 179.4-26.9Q 179.4-35.2  182.9-41.5Q 186.4-47.8  192.55-51.2Q 198.7-54.6  206.3-54.6L 206.3-54.6Q 216.6-54.6  222.4-48.1L 222.4-48.1L 222.4-74.2ZM 209-12Q 214.9-12  218.8-16.05Q 222.7-20.1  222.7-26.9L 222.7-26.9Q 222.7-33.7  218.8-37.75Q 214.9-41.8  209-41.8L 209-41.8Q 203-41.8  199.1-37.75Q 195.2-33.7  195.2-26.9L 195.2-26.9Q 195.2-20.1  199.1-16.05Q 203-12  209-12L 209-12Z"></path></svg>