<svg xmlns:xlink="http://www.w3.org/1999/xlink" xmlns="http://www.w3.org/2000/svg" width="512" height="512" style="overflow: visible;" viewBox="0 0 512 512"><g transform="matrix(1.0000000050194926, 0, 0, 1.0000000050194926, -157.50233489797697, 42.15277983405332)" data-uid="o_f03bjk3i9_5"><g transform="matrix(2.550992488861084, 0, 0, 2.550992488861084, 135.7596435546875, 57.61586380004883)" fill="#D2898B" data-uid="o_f03bjk3i9_6"><path d="M48.062,71.138c-0.006,0.078-0.058,0.146-0.132,0.173c-0.494,0.179-0.995,0.539-1.41,1.016  c-0.449,0.516-0.753,1.107-0.857,1.669c-0.015,0.079-0.075,0.142-0.152,0.159c-0.015,0.004-0.03,0.005-0.045,0.005  c-0.063,0-0.124-0.029-0.162-0.082c-0.5-0.683-0.371-1.742,0.306-2.518c0.435-0.499,1.038-0.797,1.615-0.797  c0.268,0,0.515,0.062,0.734,0.184C48.028,70.984,48.068,71.059,48.062,71.138z M89.946,57.404c0.021,1.472-0.358,2.714-1.044,3.41  c-0.396,0.401-0.879,0.614-1.396,0.614l0,0c-0.18,0-0.36-0.026-0.538-0.079c-0.666-0.195-1.203-0.717-1.61-1.405  c-0.794,1-1.727,1.576-2.604,1.576l0,0c-0.536,0-1.029-0.218-1.391-0.612c-1.136-1.237-0.658-3.719,0.4-5.53  c0.565-0.968,1.251-1.689,1.959-2.09c-0.828-0.696-2.228-1.158-3.71-1.158c-0.021,0-0.041,0.002-0.062,0.002  c0.004,0.006,0.008,0.012,0.011,0.018c0.038,0.054,0.076,0.107,0.109,0.162c0.041,0.063,0.078,0.128,0.112,0.192  c0.026,0.05,0.05,0.099,0.072,0.148c0.033,0.074,0.064,0.15,0.09,0.226c0.013,0.036,0.023,0.072,0.033,0.108  c0.026,0.092,0.05,0.184,0.064,0.276c0.003,0.017,0.004,0.035,0.007,0.053c0.016,0.109,0.025,0.22,0.025,0.331  c0,0.705-0.302,1.36-0.908,1.968c-1.207,5.827-3.546,11.057-6.854,15.396c4.269,1.149,9.815,3.672,10.492,9.08  c0.479,3.825-6.94,3.982-7.25,1.196c-0.401-3.618-3.305-6.068-5.635-7.476c-0.469,0.491-0.947,0.973-1.445,1.434  c-1.509,1.397-3.11,2.604-4.784,3.631v3.146c0,0.679-0.183,1.332-0.52,1.95c0.4,0.392,0.812,0.658,1.279,0.788  c0.354,0.099,1.269,0.353,1.814-0.716c0.433-1.426,1.912-2.274,3.374-1.905c1.503,0.379,2.413,1.905,2.034,3.408l-0.077,0.306  l-0.063,0.162c-0.774,1.985-3.038,4.456-6.46,4.456c-0.665,0-1.374-0.093-2.125-0.302c-1.796-0.499-3.114-1.501-4.183-2.691  c-0.071,0.03-0.14,0.062-0.213,0.093c0.905,1.635,2.643,4.308,5.055,5.944c0.607,0.413,1.292,1.136,1.038,1.77  c-0.434,1.083-1.686,0.71-2.957,1.563c-1.214,0.814-2.513,1.57-3.264,1.553c-1.765-0.039-3.491-2.432-4.32-5.833  c-0.403-1.654-0.698-2.828-0.895-3.602c-1.281,0.179-2.638,0.276-4.049,0.276c-1.862,0-3.63-0.168-5.253-0.472  c-0.157,0.74-0.433,2.082-0.827,4.142c-0.651,3.402-2.249,5.795-4.012,5.834c-0.75,0.017-2.089-0.739-3.346-1.553  c-1.316-0.854-2.549-0.48-3.04-1.563c-0.288-0.634,0.359-1.356,0.945-1.77c2.734-1.924,4.478-5.318,5.127-6.755  c-2.563-1.295-4.125-3.082-4.125-5.084l0-3.336c-1.57-0.989-3.074-2.143-4.496-3.462c-0.783-0.726-1.525-1.497-2.234-2.3  c-0.283,0.236-0.56,0.453-0.815,0.652c-1.563,1.217-1.734,1.515-1.734,2.164s0.171,0.946,1.734,2.164  c1.562,1.217,3.924,3.057,3.924,6.647c0,1.567-1.274,2.842-2.841,2.842s-2.841-1.274-2.841-2.842c0-0.648-0.17-0.946-1.733-2.164  c-1.227-0.955-2.941-2.298-3.624-4.567c-0.292,0.478-0.544,0.991-0.732,1.555c-0.886,2.658-8.116,0.945-6.847-2.694  c1.492-4.279,5.864-5.898,9.835-6.452c0.473-0.438,0.949-0.811,1.368-1.137c0.375-0.292,0.667-0.529,0.899-0.733  c-1.005-1.608-1.892-3.313-2.653-5.107c-1.146-1.167-2.171-2.77-2.171-5.135c0-0.41,0.034-0.806,0.095-1.189  c-0.104-0.437-0.205-0.873-0.296-1.315c-0.074-0.074-0.143-0.149-0.208-0.225c-0.003-0.005-0.007-0.009-0.01-0.014  c-0.062-0.071-0.119-0.144-0.171-0.217c-0.004-0.005-0.008-0.011-0.012-0.016c-0.163-0.229-0.287-0.464-0.371-0.704  c-0.006-0.019-0.012-0.037-0.018-0.057c-0.019-0.059-0.036-0.118-0.05-0.177c-0.005-0.024-0.011-0.049-0.016-0.072  c-0.012-0.058-0.021-0.115-0.029-0.174c-0.003-0.022-0.007-0.046-0.009-0.069c-0.007-0.08-0.013-0.16-0.013-0.241  c0-0.086,0.006-0.171,0.015-0.255c0.003-0.017,0.005-0.034,0.007-0.052c0.009-0.073,0.022-0.146,0.038-0.218  c0.002-0.01,0.004-0.02,0.007-0.029c0.125-0.526,0.43-1.021,0.921-1.488c0.002-0.002,0.005-0.005,0.008-0.007  c0.002-0.003,0.006-0.005,0.009-0.008c0.184-0.173,0.394-0.343,0.629-0.508c0.272-0.951,0.655-1.845,1.139-2.657  c-3.713-0.827-6.836-3.297-8.33-6.764c-0.544-1.263-0.715-2.486-0.697-3.527c-1.084-0.901-1.666-2.791-1.687-4.498  c-0.019-1.469,0.364-2.71,1.05-3.405c0.535-0.542,1.249-0.737,1.938-0.534c0.666,0.197,1.202,0.721,1.608,1.412  c0.795-0.996,1.726-1.57,2.603-1.57c0.538,0,1.033,0.219,1.395,0.616c1.131,1.24,0.647,3.721-0.416,5.529  c-0.568,0.966-1.256,1.686-1.964,2.084c0.829,0.702,2.234,1.169,3.725,1.169c0.899,0,1.758-0.171,2.487-0.496  c1.362-0.606,1.934-2.115,2.01-3.223c0.043-0.624,0.528-1.353,1.754-1.353c0.165,0,0.303,0.013,0.382,0.022  c0.205,0.009,1.002,0.044,2.022,0.091c-1.036-2.893-0.904-5.709,0.559-7.841c1.533-2.234,4.249-3.418,7.674-3.353L32.939,4.437  c-0.375-1.463,0.503-2.949,1.956-3.322c1.454-0.374,2.939,0.506,3.312,1.958l5.116,20.792c1.68,0.611,3.348,1.465,4.927,2.548  c3.772,2.587,5.966,5.767,6.321,9.072c0.125-0.009,0.249-0.022,0.374-0.029c-0.152-0.886,0.001-1.81,0.458-2.604  c0.51-0.881,1.338-1.518,2.298-1.793c0.189-0.625,0.537-1.189,1-1.646l7.834-16.963c0.647-1.365,2.273-1.944,3.629-1.302  c1.355,0.643,1.936,2.269,1.294,3.624l-6.132,12.604c0.904,0.071,1.751,0.453,2.397,1.077c0.956-0.223,1.979-0.072,2.828,0.417  c0.882,0.51,1.519,1.338,1.794,2.299c0.937,0.284,1.743,0.915,2.24,1.774c0.51,0.882,0.646,1.917,0.405,2.888  c0.669,0.715,1.053,1.664,1.053,2.658c0,1.018-0.398,1.984-1.093,2.703c0.095,0.407,0.119,0.825,0.081,1.237  c0.479-0.054,0.96-0.084,1.442-0.084c4.863,0,9.206,2.764,11.064,7.042c0.549,1.263,0.723,2.485,0.707,3.525  C89.334,53.81,89.92,55.697,89.946,57.404z M18.597,79.119c-0.072-0.25-0.333-0.396-0.584-0.323  c-0.52,0.148-1.128,0.146-1.715-0.005c-0.809-0.211-1.502-0.689-1.852-1.28c-0.086-0.145-0.236-0.228-0.393-0.231  c-0.086-0.003-0.174,0.02-0.254,0.066c-0.224,0.132-0.298,0.422-0.166,0.646c0.481,0.812,1.366,1.437,2.428,1.712  c0.757,0.197,1.522,0.196,2.212-0.001C18.524,79.631,18.669,79.37,18.597,79.119z M38.604,95.913  c-1.078-0.833-2.405-1.343-3.838-1.474c-0.204-0.018-0.381,0.131-0.394,0.335c-0.014,0.203,0.141,0.383,0.346,0.402  c1.29,0.118,2.48,0.573,3.444,1.317c0.075,0.06,0.166,0.085,0.252,0.079c0.103-0.006,0.199-0.054,0.266-0.14  C38.802,96.272,38.768,96.04,38.604,95.913z M59.491,96.088c0.07,0.086,0.17,0.134,0.272,0.14c0.087,0.006,0.177-0.02,0.249-0.079  c0.924-0.743,2.09-1.198,3.373-1.317c0.204-0.019,0.35-0.198,0.325-0.402s-0.209-0.352-0.411-0.335  c-1.427,0.132-2.727,0.641-3.761,1.475C59.382,95.694,59.36,95.928,59.491,96.088z M77.219,81.895  c0.633,0.339,1.381,0.5,2.161,0.466c1.095-0.046,2.089-0.471,2.729-1.164c0.177-0.192,0.164-0.491-0.026-0.667  c-0.068-0.063-0.149-0.103-0.233-0.118c-0.154-0.029-0.319,0.021-0.433,0.144c-0.466,0.505-1.241,0.827-2.076,0.862  c-0.604,0.025-1.2-0.101-1.677-0.355c-0.229-0.123-0.516-0.035-0.638,0.194C76.902,81.486,76.99,81.771,77.219,81.895z   M74.113,44.606c-0.115,0.133-0.237,0.26-0.367,0.375c0.415,0.334,0.814,0.693,1.203,1.065l-0.24-1.554  C74.511,44.525,74.312,44.563,74.113,44.606z M65.022,29.366c-0.258,0-0.508,0.056-0.738,0.156l-2.074,4.263  c2.072-0.949,4.073-0.473,5.489,0.536c2.315,1.65,3.177,4.647,1.962,6.824c-0.068,0.123-0.145,0.239-0.225,0.353  c0.851,0.91,1.198,1.328,1.28,1.502c0.445,0.231,0.88,0.483,1.305,0.75c0.32-0.163,0.593-0.415,0.777-0.734  c0.304-0.526,0.333-1.173,0.078-1.73c-0.202-0.442-0.058-0.966,0.344-1.242c0.514-0.354,0.819-0.935,0.819-1.555  c0-0.607-0.298-1.183-0.798-1.538c-0.396-0.282-0.533-0.808-0.323-1.248c0.268-0.563,0.243-1.22-0.067-1.756  c-0.305-0.526-0.85-0.875-1.46-0.933c-0.484-0.045-0.866-0.434-0.904-0.919c-0.05-0.621-0.399-1.177-0.937-1.487  c-0.522-0.301-1.184-0.329-1.73-0.078c-0.441,0.203-0.967,0.059-1.243-0.343C66.225,29.672,65.643,29.366,65.022,29.366z   M67.972,40.04c0.68-1.411-0.19-3.199-1.437-4.086c-1.46-1.042-3.183-0.852-4.731,0.477c0.907,0.316,1.793,0.707,2.653,1.171  C65.707,38.276,66.894,39.084,67.972,40.04z M63.516,39.344c-1.076-0.581-2.198-1.029-3.354-1.348l-0.893,1.836  c1.041,0.259,2.053,0.639,3.023,1.137c0.842-0.004,1.686,0.047,2.523,0.162c0.589,0.081,1.169,0.189,1.739,0.324  C65.613,40.637,64.597,39.927,63.516,39.344z M52.112,48.463c0.188,0.111,0.374,0.226,0.56,0.343l16.979-34.901  c0.164-0.348,0.012-0.776-0.345-0.945c-0.357-0.169-0.785-0.017-0.954,0.341L52.112,48.463z M49.931,57.023  c0.421,0.57,0.815,1.163,1.176,1.78c0.763-0.007,1.519-0.021,2.27-0.04c-0.724-1.393-1.587-2.688-2.572-3.878  C50.556,55.603,50.264,56.316,49.931,57.023z M51.17,44.958c0.176-0.23,0.389-0.437,0.636-0.613l1.198-2.593  c-0.043,0.011-0.086,0.018-0.129,0.029c-0.971,0.252-1.908,0.627-2.803,1.114C50.52,43.503,50.888,44.194,51.17,44.958z   M53.671,54.665c0.181-0.583,0.493-1.119,0.921-1.561c-0.031-0.133-0.054-0.267-0.07-0.4c-0.867-0.794-1.787-1.505-2.752-2.129  c-0.07,0.72-0.19,1.449-0.356,2.184C52.204,53.327,52.959,53.964,53.671,54.665z M54.926,50.438  c0.027-0.054,0.053-0.109,0.083-0.161c0.462-0.801,1.196-1.412,2.068-1.721h0.001c0.075-0.027,0.151-0.051,0.228-0.073  c0.056-0.182,0.127-0.356,0.208-0.526c-0.787,0.341-1.549,0.762-2.279,1.269c-0.221,0.152-0.459,0.265-0.705,0.351l-0.191,0.393  C54.535,50.121,54.731,50.277,54.926,50.438z M51.874,37.924c-1.617,0.419-3.159,1.09-4.601,1.991l0.197,0.803  c0.185,0.089,0.368,0.184,0.545,0.29c0.215,0.129,0.418,0.271,0.616,0.421c1.183-0.701,2.438-1.226,3.747-1.564  c0.542-0.141,1.092-0.244,1.645-0.318l0.974-2.107C53.943,37.496,52.898,37.657,51.874,37.924z M46.673,37.479l0.105,0.427  c0.199-0.114,0.397-0.228,0.598-0.335C47.144,37.533,46.909,37.505,46.673,37.479z M48.273,35.712  c0.032-1.379-0.624-2.709-1.805-3.52c-0.388-0.266-0.806-0.454-1.236-0.572l0.94,3.822C46.877,35.492,47.578,35.581,48.273,35.712z   M43.914,26.262l0.795,3.234c1.006,0.094,2.001,0.432,2.893,1.042c1.876,1.288,2.858,3.461,2.647,5.66  c0.074,0.023,0.148,0.048,0.223,0.071c0.299-0.095,0.6-0.184,0.905-0.263c0.402-0.104,0.808-0.189,1.214-0.265  c-0.279-2.728-2.186-5.42-5.474-7.675C46.08,27.354,45.003,26.75,43.914,26.262z M44.532,40.012c0.242,0.008,0.48,0.027,0.715,0.057  L36.264,3.562c-0.096-0.373-0.486-0.604-0.87-0.506c-0.382,0.098-0.613,0.49-0.516,0.872L44.532,40.012z M31.379,47.571  c0.539,0.123,1.077-0.214,1.2-0.754c0.124-0.541-0.214-1.078-0.754-1.201c-0.538-0.123-1.092-0.186-1.646-0.186  c-3.889,0-7.224,3.053-7.928,7.26c-0.018,0.104-0.017,0.206-0.002,0.306c0.431-0.393,1.229-0.989,2.322-1.262  c0.909-2.551,3.105-4.298,5.607-4.298C30.583,47.436,30.987,47.481,31.379,47.571z M30.938,49.501  c-0.248-0.057-0.504-0.085-0.759-0.085c-1.427,0-2.713,0.902-3.444,2.289c0.604,0.128,1.165,0.363,1.664,0.682  c0.425-0.659,1.092-1.141,2.131-1.363c0.215-0.487,0.458-0.977,0.726-1.468C31.149,49.543,31.044,49.525,30.938,49.501z   M33.903,44.699c0.201-0.273,0.378-0.526,0.453-0.605c1.814-1.925,4.048-3.337,6.458-4.085c0.506-0.157,1.021-0.281,1.54-0.378  l-0.52-1.941c-0.544,0.107-1.083,0.24-1.614,0.405c-2.74,0.85-5.44,2.303-7.323,4.625c-0.361,0.444-0.584,0.746-0.709,0.951  c0.026,0.005,0.053,0.01,0.079,0.016C32.918,43.834,33.487,44.19,33.903,44.699z M39.991,36.099  c0.439-0.126,0.883-0.234,1.331-0.327l-0.659-2.463C40.104,34.142,39.875,35.124,39.991,36.099z M34.838,38.502  c1.023-0.684,2.103-1.263,3.225-1.729c-0.311-1.61,0.028-3.265,0.971-4.639c0.294-0.429,0.638-0.802,1.012-1.13l-1.655-6.187  c-0.143-0.01-0.287-0.022-0.429-0.027c-2.79-0.088-4.976,0.792-6.135,2.481C29.898,30.083,31.144,34.625,34.838,38.502z   M16.516,34.645c0.006,0.448-0.03,0.87-0.096,1.267c0.285-0.208,0.668-0.593,1.051-1.244c0.854-1.454,0.874-2.782,0.695-3.115  c-0.227,0.058-0.825,0.433-1.417,1.441c-0.122,0.208-0.225,0.411-0.314,0.611C16.482,33.952,16.511,34.302,16.516,34.645z   M14.511,34.669c-0.021-1.686-0.692-2.833-1.02-3.026c-0.16,0.165-0.481,0.804-0.466,1.967c0.021,1.687,0.693,2.834,1.02,3.026  C14.208,36.474,14.526,35.85,14.511,34.669z M23.082,46.621c0.307-0.331,0.633-0.64,0.977-0.925l-0.427-2.826  c-0.083-0.547,0.294-1.058,0.841-1.141c0.549-0.084,1.059,0.294,1.142,0.841l0.288,1.91c1.193-0.606,2.509-0.963,3.889-1.021  c0.168-0.322,0.452-0.725,0.886-1.235l-1.964-1.467c-0.443-0.332-0.534-0.959-0.203-1.403s0.959-0.535,1.403-0.203l2.145,1.602  c0.376-0.365,0.764-0.714,1.164-1.046c-1.096-1.181-1.996-2.423-2.68-3.678c-1.134-0.053-2.247-0.104-3.08-0.14  c-0.021-0.001-0.043-0.003-0.065-0.005c-0.299,1.968-1.492,3.656-3.137,4.389c-0.982,0.437-2.124,0.669-3.302,0.669  c-2.541,0-4.816-1.037-5.864-2.591c-0.121,0.079-0.246,0.143-0.377,0.191c0.026,0.687,0.165,1.485,0.527,2.326  c0.448,1.04,1.079,1.968,1.843,2.766l1.086-1.396c0.34-0.436,0.969-0.516,1.407-0.175c0.437,0.34,0.515,0.97,0.176,1.407  l-1.137,1.461C19.919,45.821,21.446,46.405,23.082,46.621z M29.571,66.928c0-2.692-1.708-4.023-3.215-5.196  c-1.514-1.18-2.443-1.985-2.443-3.615c0-0.969,0.33-1.646,0.914-2.284c0.294-0.25,0.543-0.405,0.875-0.396  c0.637,0.019,1.137,0.505,1.137,1.108c0,0.005-0.001,0.01-0.001,0.015c0.618,0.158,1.277,0.309,1.967,0.453  c0.023-0.154,0.039-0.311,0.039-0.468c0-1.695-1.355-3.062-3.084-3.112c-0.029-0.001-0.059-0.002-0.087-0.001  c-1.445,0.032-2.367,1.104-2.377,1.115l0.001,0.003c-0.795,0.887-1.388,1.98-1.388,3.567c0,2.692,1.708,4.023,3.215,5.196  c1.515,1.18,2.443,1.985,2.443,3.615s-0.928,2.436-2.443,3.615c-1.507,1.174-3.215,2.504-3.215,5.197  c0,2.692,1.708,4.022,3.215,5.196c1.515,1.18,2.443,1.985,2.443,3.615c0,0.554,0.449,1.003,1.002,1.003s1.002-0.449,1.002-1.003  c0-2.692-1.708-4.022-3.215-5.196c-1.514-1.18-2.443-1.985-2.443-3.615c0-1.631,0.929-2.437,2.443-3.615  C27.863,70.951,29.571,69.62,29.571,66.928z M59.968,82.002c-1.768-2.886-3.772-6.155-8.512-7.329  c-0.537-0.133-1.081,0.194-1.214,0.732c-0.133,0.537,0.195,1.081,0.732,1.214c3.941,0.976,5.64,3.748,7.283,6.43  c1.392,2.271,2.831,4.619,5.573,5.382c0.594,0.165,1.145,0.237,1.656,0.237c2.701,0,4.267-2.035,4.764-3.309  c0.2-0.514-0.053-1.089-0.564-1.292c-0.512-0.204-1.094,0.047-1.301,0.558c-0.111,0.275-1.172,2.664-4.018,1.874  C62.386,85.948,61.265,84.119,59.968,82.002z M61.506,81.059c0.203,0.332,0.396,0.642,0.58,0.933v-1.992  c-0.315,0.159-0.632,0.311-0.951,0.457C61.261,80.661,61.386,80.863,61.506,81.059z M77.141,57.16  c-1.526,0.685-3.582,1.293-6.181,1.832c-2.023,0.42-4.286,0.771-6.719,1.051c-0.506-1.714-1.34-3.051-2.381-3.796  c0.244-0.406,0.649-0.83,1.324-1.161c0.498-0.243,1.098-0.038,1.342,0.458c0.244,0.497,0.039,1.098-0.458,1.342  c-0.217,0.106-0.487,0.286-0.549,0.538c-0.045,0.186,0.021,0.428,0.169,0.665c0.066-0.008,0.133-0.015,0.197-0.022  c0.19-0.021,0.38-0.043,0.567-0.065c0.107-0.014,0.214-0.026,0.321-0.039c0.945-0.117,1.862-0.246,2.747-0.386  c0.784-1.427-0.104-3.288-1.383-4.199c-1.678-1.196-3.701-0.77-5.411,1.143c-0.368,0.413-1.002,0.449-1.415,0.08  s-0.448-1.003-0.079-1.415c2.895-3.239,6.066-2.868,8.069-1.44c1.855,1.322,2.773,3.508,2.442,5.444  c0.271-0.052,0.544-0.104,0.809-0.159c0.264-0.055,0.517-0.11,0.765-0.166c0.061-0.013,0.121-0.027,0.181-0.04  c0.232-0.054,0.46-0.106,0.678-0.16c0.008-0.002,0.017-0.004,0.024-0.006c0.241-0.06,0.474-0.119,0.697-0.178  c0.025-0.007,0.05-0.014,0.074-0.021c0.215-0.058,0.424-0.115,0.624-0.173c0.003-0.001,0.006-0.002,0.009-0.003  c0.024-0.121,0.038-0.245,0.038-0.372c0-0.608-0.298-1.183-0.797-1.538c-0.397-0.282-0.534-0.809-0.324-1.248  c0.268-0.562,0.243-1.219-0.067-1.756c-0.305-0.526-0.85-0.875-1.46-0.934c-0.484-0.046-0.866-0.433-0.904-0.918  c-0.05-0.621-0.399-1.178-0.937-1.488c-0.527-0.304-1.174-0.333-1.729-0.078c-0.443,0.203-0.968,0.058-1.244-0.343  c-0.353-0.513-0.934-0.819-1.555-0.819c-0.607,0-1.184,0.298-1.537,0.797c-0.283,0.397-0.81,0.533-1.249,0.325  c-0.563-0.269-1.22-0.244-1.756,0.066c-0.526,0.305-0.875,0.85-0.933,1.459c-0.046,0.485-0.434,0.867-0.92,0.905  c-0.165,0.014-0.328,0.048-0.484,0.103v0.001c-0.422,0.149-0.778,0.445-1.002,0.833c-0.305,0.527-0.334,1.173-0.079,1.729  c0.203,0.443,0.059,0.968-0.343,1.243c-0.513,0.354-0.819,0.936-0.819,1.556c0,0.607,0.298,1.183,0.797,1.537  c0.131,0.093,0.23,0.215,0.302,0.349c-0.53,0.819-0.949,1.844-1.222,3.018c-1.85,0.073-3.742,0.111-5.664,0.111  c-0.98,0-1.953-0.011-2.917-0.03c-0.167-0.737-0.391-1.417-0.663-2.026c0.173,0.005,0.344,0.011,0.517,0.015  c0.159-0.241,0.317-0.486,0.471-0.744c1.834-3.058,2.796-6.374,2.711-9.336c-0.082-2.798-1.094-4.918-2.852-5.972  c-0.793-0.476-1.71-0.717-2.724-0.717c-0.023,0-0.357-0.009-0.768,0.045c-3.51,0.394-7.47,3.412-10.078,7.761  c-1.644,2.74-2.375,5.376-2.134,7.659c0.779,0.129,1.584,0.25,2.414,0.362c0.002,0,0.005,0,0.007,0  c-0.11-0.271-0.204-0.549-0.276-0.838c-0.4-1.597-0.154-3.254,0.693-4.665c1.106-1.847,3.133-2.994,5.29-2.994  c1.112,0,2.206,0.304,3.164,0.877c2.476,1.485,3.526,4.444,2.717,7.087c-0.506-0.669-1.097-1.167-1.749-1.449  c0.128-1.531-0.595-3.076-1.999-3.918c-0.646-0.388-1.384-0.593-2.133-0.593c-1.478,0-2.812,0.755-3.57,2.021  c-0.571,0.952-0.737,2.069-0.468,3.146c0.152,0.607,0.436,1.156,0.821,1.626c0.01,0.001,0.021,0.002,0.032,0.003  c0.448,0.048,0.901,0.094,1.359,0.136c0.043,0.004,0.086,0.008,0.13,0.013c0.287,0.026,0.579,0.05,0.87,0.075  c-0.296,0.579-0.545,1.233-0.738,1.95c-2.884-0.259-5.575-0.612-7.982-1.054c0,0.001-0.001,0.001-0.001,0.002  c-0.055-0.011-0.107-0.021-0.163-0.031c-0.111-0.021-0.221-0.042-0.33-0.063c-0.242-0.046-0.481-0.093-0.716-0.141  c-0.059-0.012-0.12-0.023-0.178-0.035l-0.002-0.002c-0.639-0.133-1.253-0.271-1.834-0.415c-0.363-0.09-0.698,0.594,0.222,1.372  c0.205,0.174,0.544,0.375,0.946,0.584c1.546,1.217,3.605,3.041,3.605,6.396c0,2.001-0.734,3.457-1.654,4.566  c3.965,4.507,9.012,7.633,14.592,8.866c-0.145,0.516-0.209,1.098-0.209,1.668c0,0.025,0.001,0.159,0.014,0.358  c-2.471-0.511-4.855-1.363-7.118-2.545v2.18c0,2.467,5.144,5.215,12.525,5.215c3.32,0,6.187-0.557,8.337-1.394  c-0.42-0.615-0.806-1.243-1.178-1.851c-0.589-0.961-1.149-1.872-1.784-2.68c0.029,0.235,0.046,0.479,0.046,0.716  c0,0.837-0.318,2.358-0.831,2.23l-3.866-1.571c-0.058-0.018-0.11-0.041-0.158-0.067c-0.047,0.026-0.1,0.05-0.158,0.067l-3.866,1.571  c-0.512,0.128-0.831-1.394-0.831-2.23c0-1.061,0.306-2.28,0.831-2.171l3.956,1.814c0.024,0.013,0.046,0.025,0.068,0.038  c0.022-0.013,0.043-0.025,0.068-0.038l3.557-1.632c-0.472-0.417-0.994-0.784-1.596-1.083c-0.224,0.062-0.463,0.097-0.719,0.097  h-0.771c-2.041,0-3.056-2.157-3.056-3.88s1.371-3.055,3.056-3.055h0.771c1.146,0,2.146,0.618,2.669,1.556  c2.758,1.213,4.549,3.154,5.889,5.048C68.092,75.093,74.502,67.266,77.141,57.16z M77.193,52.383  c-2.615-5.164-7.224-8.549-12.646-9.29c-1.676-0.229-3.367-0.192-5.029,0.111c-0.734,0.134-1.455,0.32-2.16,0.554l-1.315,2.703  c1.224-0.608,2.506-1.041,3.835-1.284c1.162-0.211,2.341-0.272,3.517-0.187c0.394-0.132,0.808-0.206,1.231-0.206  c1,0,1.948,0.386,2.662,1.058c0.025,0.009,0.051,0.018,0.075,0.028c0.943-0.21,1.942-0.067,2.792,0.423  c0.883,0.509,1.52,1.337,1.795,2.298c0.937,0.285,1.743,0.915,2.241,1.775c0.3,0.52,0.467,1.093,0.508,1.675  c0.249,0.403,0.487,0.815,0.706,1.247c0.154,0.306,0.443,0.497,0.759,0.54c0.195,0.027,0.399-0.003,0.588-0.099  C77.246,53.479,77.443,52.876,77.193,52.383z M84.448,56.409c-0.008-0.447,0.027-0.87,0.093-1.267  c-0.285,0.209-0.666,0.595-1.047,1.246c-0.853,1.458-0.867,2.786-0.687,3.118c0.226-0.058,0.822-0.434,1.412-1.445  c0.122-0.207,0.224-0.411,0.313-0.611C84.483,57.103,84.453,56.752,84.448,56.409z M86.235,52.511  c-0.028-0.688-0.169-1.486-0.534-2.327c-0.45-1.038-1.085-1.964-1.851-2.761l-1.082,1.398c-0.197,0.255-0.494,0.389-0.794,0.389  c-0.214,0-0.43-0.068-0.612-0.209c-0.438-0.339-0.518-0.968-0.179-1.406l1.133-1.465c-1.599-1.089-3.536-1.726-5.6-1.772  l0.592,3.848c0.027,0.175,0.003,0.345-0.055,0.5c0.368,0.51,0.716,1.041,1.042,1.592c0.554-0.112,1.129-0.171,1.716-0.171  c2.53,0,4.804,1.028,5.854,2.573C85.983,52.622,86.107,52.56,86.235,52.511z M87.941,57.434c-0.026-1.685-0.7-2.83-1.028-3.022  c-0.16,0.165-0.479,0.805-0.46,1.968c0.024,1.688,0.7,2.833,1.027,3.024C87.644,59.238,87.959,58.612,87.941,57.434z M51.199,67.375  c-1.067,0-1.933,0.465-1.933,1.037c0,0.573,0.866,1.038,1.933,1.038c1.068,0,1.934-0.465,1.934-1.038  C53.133,67.84,52.268,67.375,51.199,67.375z M63.268,64.004c0,1.627-0.276,3.122-0.737,4.312c-0.646-0.134-1.367-0.259-2.135-0.363  c-1.367-0.188-2.615-0.277-3.54-0.272c-0.328-1.068-0.52-2.326-0.52-3.676c0-3.867,1.552-7.002,3.466-7.002  S63.268,60.137,63.268,64.004z M61.265,63.475c0.018-0.52-0.145-0.951-0.361-0.963c-0.219-0.012-0.41,0.4-0.428,0.92  s0.144,0.951,0.361,0.963S61.246,63.994,61.265,63.475z M61.144,65.066c-0.03,0.868,0.24,1.589,0.604,1.608s0.684-0.668,0.713-1.536  c0.031-0.868-0.24-1.589-0.604-1.608S61.173,64.198,61.144,65.066z M45.21,67.68c-0.925-0.005-2.173,0.085-3.541,0.272  c-0.767,0.104-1.488,0.229-2.134,0.363c-0.461-1.189-0.738-2.685-0.738-4.312c0-3.867,1.551-7.002,3.465-7.002  c1.915,0,3.466,3.135,3.466,7.002C45.729,65.354,45.538,66.611,45.21,67.68z M43.727,63.475c0.018-0.52-0.144-0.951-0.361-0.963  s-0.41,0.4-0.428,0.92s0.144,0.951,0.362,0.963C43.517,64.406,43.708,63.994,43.727,63.475z M44.319,63.53  c-0.364-0.02-0.684,0.668-0.713,1.536c-0.03,0.868,0.24,1.589,0.603,1.608c0.364,0.02,0.684-0.668,0.714-1.536  S44.683,63.55,44.319,63.53z" transform="matrix(1, 0, 0, 1, 0, 0)" fill="#D2898B" data-uid="o_f03bjk3i9_7"></path></g></g><g transform="matrix(2.550992287385631, 0, 0, 2.550992287385631, -19.27919497682393, 102.23214771226868)" fill="#141445" data-uid="o_f03bjk3i9_8"><path d="M48.062,71.138c-0.006,0.078-0.058,0.146-0.132,0.173c-0.494,0.179-0.995,0.539-1.41,1.016  c-0.449,0.516-0.753,1.107-0.857,1.669c-0.015,0.079-0.075,0.142-0.152,0.159c-0.015,0.004-0.03,0.005-0.045,0.005  c-0.063,0-0.124-0.029-0.162-0.082c-0.5-0.683-0.371-1.742,0.306-2.518c0.435-0.499,1.038-0.797,1.615-0.797  c0.268,0,0.515,0.062,0.734,0.184C48.028,70.984,48.068,71.059,48.062,71.138z M89.946,57.404c0.021,1.472-0.358,2.714-1.044,3.41  c-0.396,0.401-0.879,0.614-1.396,0.614l0,0c-0.18,0-0.36-0.026-0.538-0.079c-0.666-0.195-1.203-0.717-1.61-1.405  c-0.794,1-1.727,1.576-2.604,1.576l0,0c-0.536,0-1.029-0.218-1.391-0.612c-1.136-1.237-0.658-3.719,0.4-5.53  c0.565-0.968,1.251-1.689,1.959-2.09c-0.828-0.696-2.228-1.158-3.71-1.158c-0.021,0-0.041,0.002-0.062,0.002  c0.004,0.006,0.008,0.012,0.011,0.018c0.038,0.054,0.076,0.107,0.109,0.162c0.041,0.063,0.078,0.128,0.112,0.192  c0.026,0.05,0.05,0.099,0.072,0.148c0.033,0.074,0.064,0.15,0.09,0.226c0.013,0.036,0.023,0.072,0.033,0.108  c0.026,0.092,0.05,0.184,0.064,0.276c0.003,0.017,0.004,0.035,0.007,0.053c0.016,0.109,0.025,0.22,0.025,0.331  c0,0.705-0.302,1.36-0.908,1.968c-1.207,5.827-3.546,11.057-6.854,15.396c4.269,1.149,9.815,3.672,10.492,9.08  c0.479,3.825-6.94,3.982-7.25,1.196c-0.401-3.618-3.305-6.068-5.635-7.476c-0.469,0.491-0.947,0.973-1.445,1.434  c-1.509,1.397-3.11,2.604-4.784,3.631v3.146c0,0.679-0.183,1.332-0.52,1.95c0.4,0.392,0.812,0.658,1.279,0.788  c0.354,0.099,1.269,0.353,1.814-0.716c0.433-1.426,1.912-2.274,3.374-1.905c1.503,0.379,2.413,1.905,2.034,3.408l-0.077,0.306  l-0.063,0.162c-0.774,1.985-3.038,4.456-6.46,4.456c-0.665,0-1.374-0.093-2.125-0.302c-1.796-0.499-3.114-1.501-4.183-2.691  c-0.071,0.03-0.14,0.062-0.213,0.093c0.905,1.635,2.643,4.308,5.055,5.944c0.607,0.413,1.292,1.136,1.038,1.77  c-0.434,1.083-1.686,0.71-2.957,1.563c-1.214,0.814-2.513,1.57-3.264,1.553c-1.765-0.039-3.491-2.432-4.32-5.833  c-0.403-1.654-0.698-2.828-0.895-3.602c-1.281,0.179-2.638,0.276-4.049,0.276c-1.862,0-3.63-0.168-5.253-0.472  c-0.157,0.74-0.433,2.082-0.827,4.142c-0.651,3.402-2.249,5.795-4.012,5.834c-0.75,0.017-2.089-0.739-3.346-1.553  c-1.316-0.854-2.549-0.48-3.04-1.563c-0.288-0.634,0.359-1.356,0.945-1.77c2.734-1.924,4.478-5.318,5.127-6.755  c-2.563-1.295-4.125-3.082-4.125-5.084l0-3.336c-1.57-0.989-3.074-2.143-4.496-3.462c-0.783-0.726-1.525-1.497-2.234-2.3  c-0.283,0.236-0.56,0.453-0.815,0.652c-1.563,1.217-1.734,1.515-1.734,2.164s0.171,0.946,1.734,2.164  c1.562,1.217,3.924,3.057,3.924,6.647c0,1.567-1.274,2.842-2.841,2.842s-2.841-1.274-2.841-2.842c0-0.648-0.17-0.946-1.733-2.164  c-1.227-0.955-2.941-2.298-3.624-4.567c-0.292,0.478-0.544,0.991-0.732,1.555c-0.886,2.658-8.116,0.945-6.847-2.694  c1.492-4.279,5.864-5.898,9.835-6.452c0.473-0.438,0.949-0.811,1.368-1.137c0.375-0.292,0.667-0.529,0.899-0.733  c-1.005-1.608-1.892-3.313-2.653-5.107c-1.146-1.167-2.171-2.77-2.171-5.135c0-0.41,0.034-0.806,0.095-1.189  c-0.104-0.437-0.205-0.873-0.296-1.315c-0.074-0.074-0.143-0.149-0.208-0.225c-0.003-0.005-0.007-0.009-0.01-0.014  c-0.062-0.071-0.119-0.144-0.171-0.217c-0.004-0.005-0.008-0.011-0.012-0.016c-0.163-0.229-0.287-0.464-0.371-0.704  c-0.006-0.019-0.012-0.037-0.018-0.057c-0.019-0.059-0.036-0.118-0.05-0.177c-0.005-0.024-0.011-0.049-0.016-0.072  c-0.012-0.058-0.021-0.115-0.029-0.174c-0.003-0.022-0.007-0.046-0.009-0.069c-0.007-0.08-0.013-0.16-0.013-0.241  c0-0.086,0.006-0.171,0.015-0.255c0.003-0.017,0.005-0.034,0.007-0.052c0.009-0.073,0.022-0.146,0.038-0.218  c0.002-0.01,0.004-0.02,0.007-0.029c0.125-0.526,0.43-1.021,0.921-1.488c0.002-0.002,0.005-0.005,0.008-0.007  c0.002-0.003,0.006-0.005,0.009-0.008c0.184-0.173,0.394-0.343,0.629-0.508c0.272-0.951,0.655-1.845,1.139-2.657  c-3.713-0.827-6.836-3.297-8.33-6.764c-0.544-1.263-0.715-2.486-0.697-3.527c-1.084-0.901-1.666-2.791-1.687-4.498  c-0.019-1.469,0.364-2.71,1.05-3.405c0.535-0.542,1.249-0.737,1.938-0.534c0.666,0.197,1.202,0.721,1.608,1.412  c0.795-0.996,1.726-1.57,2.603-1.57c0.538,0,1.033,0.219,1.395,0.616c1.131,1.24,0.647,3.721-0.416,5.529  c-0.568,0.966-1.256,1.686-1.964,2.084c0.829,0.702,2.234,1.169,3.725,1.169c0.899,0,1.758-0.171,2.487-0.496  c1.362-0.606,1.934-2.115,2.01-3.223c0.043-0.624,0.528-1.353,1.754-1.353c0.165,0,0.303,0.013,0.382,0.022  c0.205,0.009,1.002,0.044,2.022,0.091c-1.036-2.893-0.904-5.709,0.559-7.841c1.533-2.234,4.249-3.418,7.674-3.353L32.939,4.437  c-0.375-1.463,0.503-2.949,1.956-3.322c1.454-0.374,2.939,0.506,3.312,1.958l5.116,20.792c1.68,0.611,3.348,1.465,4.927,2.548  c3.772,2.587,5.966,5.767,6.321,9.072c0.125-0.009,0.249-0.022,0.374-0.029c-0.152-0.886,0.001-1.81,0.458-2.604  c0.51-0.881,1.338-1.518,2.298-1.793c0.189-0.625,0.537-1.189,1-1.646l7.834-16.963c0.647-1.365,2.273-1.944,3.629-1.302  c1.355,0.643,1.936,2.269,1.294,3.624l-6.132,12.604c0.904,0.071,1.751,0.453,2.397,1.077c0.956-0.223,1.979-0.072,2.828,0.417  c0.882,0.51,1.519,1.338,1.794,2.299c0.937,0.284,1.743,0.915,2.24,1.774c0.51,0.882,0.646,1.917,0.405,2.888  c0.669,0.715,1.053,1.664,1.053,2.658c0,1.018-0.398,1.984-1.093,2.703c0.095,0.407,0.119,0.825,0.081,1.237  c0.479-0.054,0.96-0.084,1.442-0.084c4.863,0,9.206,2.764,11.064,7.042c0.549,1.263,0.723,2.485,0.707,3.525  C89.334,53.81,89.92,55.697,89.946,57.404z M18.597,79.119c-0.072-0.25-0.333-0.396-0.584-0.323  c-0.52,0.148-1.128,0.146-1.715-0.005c-0.809-0.211-1.502-0.689-1.852-1.28c-0.086-0.145-0.236-0.228-0.393-0.231  c-0.086-0.003-0.174,0.02-0.254,0.066c-0.224,0.132-0.298,0.422-0.166,0.646c0.481,0.812,1.366,1.437,2.428,1.712  c0.757,0.197,1.522,0.196,2.212-0.001C18.524,79.631,18.669,79.37,18.597,79.119z M38.604,95.913  c-1.078-0.833-2.405-1.343-3.838-1.474c-0.204-0.018-0.381,0.131-0.394,0.335c-0.014,0.203,0.141,0.383,0.346,0.402  c1.29,0.118,2.48,0.573,3.444,1.317c0.075,0.06,0.166,0.085,0.252,0.079c0.103-0.006,0.199-0.054,0.266-0.14  C38.802,96.272,38.768,96.04,38.604,95.913z M59.491,96.088c0.07,0.086,0.17,0.134,0.272,0.14c0.087,0.006,0.177-0.02,0.249-0.079  c0.924-0.743,2.09-1.198,3.373-1.317c0.204-0.019,0.35-0.198,0.325-0.402s-0.209-0.352-0.411-0.335  c-1.427,0.132-2.727,0.641-3.761,1.475C59.382,95.694,59.36,95.928,59.491,96.088z M77.219,81.895  c0.633,0.339,1.381,0.5,2.161,0.466c1.095-0.046,2.089-0.471,2.729-1.164c0.177-0.192,0.164-0.491-0.026-0.667  c-0.068-0.063-0.149-0.103-0.233-0.118c-0.154-0.029-0.319,0.021-0.433,0.144c-0.466,0.505-1.241,0.827-2.076,0.862  c-0.604,0.025-1.2-0.101-1.677-0.355c-0.229-0.123-0.516-0.035-0.638,0.194C76.902,81.486,76.99,81.771,77.219,81.895z   M74.113,44.606c-0.115,0.133-0.237,0.26-0.367,0.375c0.415,0.334,0.814,0.693,1.203,1.065l-0.24-1.554  C74.511,44.525,74.312,44.563,74.113,44.606z M65.022,29.366c-0.258,0-0.508,0.056-0.738,0.156l-2.074,4.263  c2.072-0.949,4.073-0.473,5.489,0.536c2.315,1.65,3.177,4.647,1.962,6.824c-0.068,0.123-0.145,0.239-0.225,0.353  c0.851,0.91,1.198,1.328,1.28,1.502c0.445,0.231,0.88,0.483,1.305,0.75c0.32-0.163,0.593-0.415,0.777-0.734  c0.304-0.526,0.333-1.173,0.078-1.73c-0.202-0.442-0.058-0.966,0.344-1.242c0.514-0.354,0.819-0.935,0.819-1.555  c0-0.607-0.298-1.183-0.798-1.538c-0.396-0.282-0.533-0.808-0.323-1.248c0.268-0.563,0.243-1.22-0.067-1.756  c-0.305-0.526-0.85-0.875-1.46-0.933c-0.484-0.045-0.866-0.434-0.904-0.919c-0.05-0.621-0.399-1.177-0.937-1.487  c-0.522-0.301-1.184-0.329-1.73-0.078c-0.441,0.203-0.967,0.059-1.243-0.343C66.225,29.672,65.643,29.366,65.022,29.366z   M67.972,40.04c0.68-1.411-0.19-3.199-1.437-4.086c-1.46-1.042-3.183-0.852-4.731,0.477c0.907,0.316,1.793,0.707,2.653,1.171  C65.707,38.276,66.894,39.084,67.972,40.04z M63.516,39.344c-1.076-0.581-2.198-1.029-3.354-1.348l-0.893,1.836  c1.041,0.259,2.053,0.639,3.023,1.137c0.842-0.004,1.686,0.047,2.523,0.162c0.589,0.081,1.169,0.189,1.739,0.324  C65.613,40.637,64.597,39.927,63.516,39.344z M52.112,48.463c0.188,0.111,0.374,0.226,0.56,0.343l16.979-34.901  c0.164-0.348,0.012-0.776-0.345-0.945c-0.357-0.169-0.785-0.017-0.954,0.341L52.112,48.463z M49.931,57.023  c0.421,0.57,0.815,1.163,1.176,1.78c0.763-0.007,1.519-0.021,2.27-0.04c-0.724-1.393-1.587-2.688-2.572-3.878  C50.556,55.603,50.264,56.316,49.931,57.023z M51.17,44.958c0.176-0.23,0.389-0.437,0.636-0.613l1.198-2.593  c-0.043,0.011-0.086,0.018-0.129,0.029c-0.971,0.252-1.908,0.627-2.803,1.114C50.52,43.503,50.888,44.194,51.17,44.958z   M53.671,54.665c0.181-0.583,0.493-1.119,0.921-1.561c-0.031-0.133-0.054-0.267-0.07-0.4c-0.867-0.794-1.787-1.505-2.752-2.129  c-0.07,0.72-0.19,1.449-0.356,2.184C52.204,53.327,52.959,53.964,53.671,54.665z M54.926,50.438  c0.027-0.054,0.053-0.109,0.083-0.161c0.462-0.801,1.196-1.412,2.068-1.721h0.001c0.075-0.027,0.151-0.051,0.228-0.073  c0.056-0.182,0.127-0.356,0.208-0.526c-0.787,0.341-1.549,0.762-2.279,1.269c-0.221,0.152-0.459,0.265-0.705,0.351l-0.191,0.393  C54.535,50.121,54.731,50.277,54.926,50.438z M51.874,37.924c-1.617,0.419-3.159,1.09-4.601,1.991l0.197,0.803  c0.185,0.089,0.368,0.184,0.545,0.29c0.215,0.129,0.418,0.271,0.616,0.421c1.183-0.701,2.438-1.226,3.747-1.564  c0.542-0.141,1.092-0.244,1.645-0.318l0.974-2.107C53.943,37.496,52.898,37.657,51.874,37.924z M46.673,37.479l0.105,0.427  c0.199-0.114,0.397-0.228,0.598-0.335C47.144,37.533,46.909,37.505,46.673,37.479z M48.273,35.712  c0.032-1.379-0.624-2.709-1.805-3.52c-0.388-0.266-0.806-0.454-1.236-0.572l0.94,3.822C46.877,35.492,47.578,35.581,48.273,35.712z   M43.914,26.262l0.795,3.234c1.006,0.094,2.001,0.432,2.893,1.042c1.876,1.288,2.858,3.461,2.647,5.66  c0.074,0.023,0.148,0.048,0.223,0.071c0.299-0.095,0.6-0.184,0.905-0.263c0.402-0.104,0.808-0.189,1.214-0.265  c-0.279-2.728-2.186-5.42-5.474-7.675C46.08,27.354,45.003,26.75,43.914,26.262z M44.532,40.012c0.242,0.008,0.48,0.027,0.715,0.057  L36.264,3.562c-0.096-0.373-0.486-0.604-0.87-0.506c-0.382,0.098-0.613,0.49-0.516,0.872L44.532,40.012z M31.379,47.571  c0.539,0.123,1.077-0.214,1.2-0.754c0.124-0.541-0.214-1.078-0.754-1.201c-0.538-0.123-1.092-0.186-1.646-0.186  c-3.889,0-7.224,3.053-7.928,7.26c-0.018,0.104-0.017,0.206-0.002,0.306c0.431-0.393,1.229-0.989,2.322-1.262  c0.909-2.551,3.105-4.298,5.607-4.298C30.583,47.436,30.987,47.481,31.379,47.571z M30.938,49.501  c-0.248-0.057-0.504-0.085-0.759-0.085c-1.427,0-2.713,0.902-3.444,2.289c0.604,0.128,1.165,0.363,1.664,0.682  c0.425-0.659,1.092-1.141,2.131-1.363c0.215-0.487,0.458-0.977,0.726-1.468C31.149,49.543,31.044,49.525,30.938,49.501z   M33.903,44.699c0.201-0.273,0.378-0.526,0.453-0.605c1.814-1.925,4.048-3.337,6.458-4.085c0.506-0.157,1.021-0.281,1.54-0.378  l-0.52-1.941c-0.544,0.107-1.083,0.24-1.614,0.405c-2.74,0.85-5.44,2.303-7.323,4.625c-0.361,0.444-0.584,0.746-0.709,0.951  c0.026,0.005,0.053,0.01,0.079,0.016C32.918,43.834,33.487,44.19,33.903,44.699z M39.991,36.099  c0.439-0.126,0.883-0.234,1.331-0.327l-0.659-2.463C40.104,34.142,39.875,35.124,39.991,36.099z M34.838,38.502  c1.023-0.684,2.103-1.263,3.225-1.729c-0.311-1.61,0.028-3.265,0.971-4.639c0.294-0.429,0.638-0.802,1.012-1.13l-1.655-6.187  c-0.143-0.01-0.287-0.022-0.429-0.027c-2.79-0.088-4.976,0.792-6.135,2.481C29.898,30.083,31.144,34.625,34.838,38.502z   M16.516,34.645c0.006,0.448-0.03,0.87-0.096,1.267c0.285-0.208,0.668-0.593,1.051-1.244c0.854-1.454,0.874-2.782,0.695-3.115  c-0.227,0.058-0.825,0.433-1.417,1.441c-0.122,0.208-0.225,0.411-0.314,0.611C16.482,33.952,16.511,34.302,16.516,34.645z   M14.511,34.669c-0.021-1.686-0.692-2.833-1.02-3.026c-0.16,0.165-0.481,0.804-0.466,1.967c0.021,1.687,0.693,2.834,1.02,3.026  C14.208,36.474,14.526,35.85,14.511,34.669z M23.082,46.621c0.307-0.331,0.633-0.64,0.977-0.925l-0.427-2.826  c-0.083-0.547,0.294-1.058,0.841-1.141c0.549-0.084,1.059,0.294,1.142,0.841l0.288,1.91c1.193-0.606,2.509-0.963,3.889-1.021  c0.168-0.322,0.452-0.725,0.886-1.235l-1.964-1.467c-0.443-0.332-0.534-0.959-0.203-1.403s0.959-0.535,1.403-0.203l2.145,1.602  c0.376-0.365,0.764-0.714,1.164-1.046c-1.096-1.181-1.996-2.423-2.68-3.678c-1.134-0.053-2.247-0.104-3.08-0.14  c-0.021-0.001-0.043-0.003-0.065-0.005c-0.299,1.968-1.492,3.656-3.137,4.389c-0.982,0.437-2.124,0.669-3.302,0.669  c-2.541,0-4.816-1.037-5.864-2.591c-0.121,0.079-0.246,0.143-0.377,0.191c0.026,0.687,0.165,1.485,0.527,2.326  c0.448,1.04,1.079,1.968,1.843,2.766l1.086-1.396c0.34-0.436,0.969-0.516,1.407-0.175c0.437,0.34,0.515,0.97,0.176,1.407  l-1.137,1.461C19.919,45.821,21.446,46.405,23.082,46.621z M29.571,66.928c0-2.692-1.708-4.023-3.215-5.196  c-1.514-1.18-2.443-1.985-2.443-3.615c0-0.969,0.33-1.646,0.914-2.284c0.294-0.25,0.543-0.405,0.875-0.396  c0.637,0.019,1.137,0.505,1.137,1.108c0,0.005-0.001,0.01-0.001,0.015c0.618,0.158,1.277,0.309,1.967,0.453  c0.023-0.154,0.039-0.311,0.039-0.468c0-1.695-1.355-3.062-3.084-3.112c-0.029-0.001-0.059-0.002-0.087-0.001  c-1.445,0.032-2.367,1.104-2.377,1.115l0.001,0.003c-0.795,0.887-1.388,1.98-1.388,3.567c0,2.692,1.708,4.023,3.215,5.196  c1.515,1.18,2.443,1.985,2.443,3.615s-0.928,2.436-2.443,3.615c-1.507,1.174-3.215,2.504-3.215,5.197  c0,2.692,1.708,4.022,3.215,5.196c1.515,1.18,2.443,1.985,2.443,3.615c0,0.554,0.449,1.003,1.002,1.003s1.002-0.449,1.002-1.003  c0-2.692-1.708-4.022-3.215-5.196c-1.514-1.18-2.443-1.985-2.443-3.615c0-1.631,0.929-2.437,2.443-3.615  C27.863,70.951,29.571,69.62,29.571,66.928z M59.968,82.002c-1.768-2.886-3.772-6.155-8.512-7.329  c-0.537-0.133-1.081,0.194-1.214,0.732c-0.133,0.537,0.195,1.081,0.732,1.214c3.941,0.976,5.64,3.748,7.283,6.43  c1.392,2.271,2.831,4.619,5.573,5.382c0.594,0.165,1.145,0.237,1.656,0.237c2.701,0,4.267-2.035,4.764-3.309  c0.2-0.514-0.053-1.089-0.564-1.292c-0.512-0.204-1.094,0.047-1.301,0.558c-0.111,0.275-1.172,2.664-4.018,1.874  C62.386,85.948,61.265,84.119,59.968,82.002z M61.506,81.059c0.203,0.332,0.396,0.642,0.58,0.933v-1.992  c-0.315,0.159-0.632,0.311-0.951,0.457C61.261,80.661,61.386,80.863,61.506,81.059z M77.141,57.16  c-1.526,0.685-3.582,1.293-6.181,1.832c-2.023,0.42-4.286,0.771-6.719,1.051c-0.506-1.714-1.34-3.051-2.381-3.796  c0.244-0.406,0.649-0.83,1.324-1.161c0.498-0.243,1.098-0.038,1.342,0.458c0.244,0.497,0.039,1.098-0.458,1.342  c-0.217,0.106-0.487,0.286-0.549,0.538c-0.045,0.186,0.021,0.428,0.169,0.665c0.066-0.008,0.133-0.015,0.197-0.022  c0.19-0.021,0.38-0.043,0.567-0.065c0.107-0.014,0.214-0.026,0.321-0.039c0.945-0.117,1.862-0.246,2.747-0.386  c0.784-1.427-0.104-3.288-1.383-4.199c-1.678-1.196-3.701-0.77-5.411,1.143c-0.368,0.413-1.002,0.449-1.415,0.08  s-0.448-1.003-0.079-1.415c2.895-3.239,6.066-2.868,8.069-1.44c1.855,1.322,2.773,3.508,2.442,5.444  c0.271-0.052,0.544-0.104,0.809-0.159c0.264-0.055,0.517-0.11,0.765-0.166c0.061-0.013,0.121-0.027,0.181-0.04  c0.232-0.054,0.46-0.106,0.678-0.16c0.008-0.002,0.017-0.004,0.024-0.006c0.241-0.06,0.474-0.119,0.697-0.178  c0.025-0.007,0.05-0.014,0.074-0.021c0.215-0.058,0.424-0.115,0.624-0.173c0.003-0.001,0.006-0.002,0.009-0.003  c0.024-0.121,0.038-0.245,0.038-0.372c0-0.608-0.298-1.183-0.797-1.538c-0.397-0.282-0.534-0.809-0.324-1.248  c0.268-0.562,0.243-1.219-0.067-1.756c-0.305-0.526-0.85-0.875-1.46-0.934c-0.484-0.046-0.866-0.433-0.904-0.918  c-0.05-0.621-0.399-1.178-0.937-1.488c-0.527-0.304-1.174-0.333-1.729-0.078c-0.443,0.203-0.968,0.058-1.244-0.343  c-0.353-0.513-0.934-0.819-1.555-0.819c-0.607,0-1.184,0.298-1.537,0.797c-0.283,0.397-0.81,0.533-1.249,0.325  c-0.563-0.269-1.22-0.244-1.756,0.066c-0.526,0.305-0.875,0.85-0.933,1.459c-0.046,0.485-0.434,0.867-0.92,0.905  c-0.165,0.014-0.328,0.048-0.484,0.103v0.001c-0.422,0.149-0.778,0.445-1.002,0.833c-0.305,0.527-0.334,1.173-0.079,1.729  c0.203,0.443,0.059,0.968-0.343,1.243c-0.513,0.354-0.819,0.936-0.819,1.556c0,0.607,0.298,1.183,0.797,1.537  c0.131,0.093,0.23,0.215,0.302,0.349c-0.53,0.819-0.949,1.844-1.222,3.018c-1.85,0.073-3.742,0.111-5.664,0.111  c-0.98,0-1.953-0.011-2.917-0.03c-0.167-0.737-0.391-1.417-0.663-2.026c0.173,0.005,0.344,0.011,0.517,0.015  c0.159-0.241,0.317-0.486,0.471-0.744c1.834-3.058,2.796-6.374,2.711-9.336c-0.082-2.798-1.094-4.918-2.852-5.972  c-0.793-0.476-1.71-0.717-2.724-0.717c-0.023,0-0.357-0.009-0.768,0.045c-3.51,0.394-7.47,3.412-10.078,7.761  c-1.644,2.74-2.375,5.376-2.134,7.659c0.779,0.129,1.584,0.25,2.414,0.362c0.002,0,0.005,0,0.007,0  c-0.11-0.271-0.204-0.549-0.276-0.838c-0.4-1.597-0.154-3.254,0.693-4.665c1.106-1.847,3.133-2.994,5.29-2.994  c1.112,0,2.206,0.304,3.164,0.877c2.476,1.485,3.526,4.444,2.717,7.087c-0.506-0.669-1.097-1.167-1.749-1.449  c0.128-1.531-0.595-3.076-1.999-3.918c-0.646-0.388-1.384-0.593-2.133-0.593c-1.478,0-2.812,0.755-3.57,2.021  c-0.571,0.952-0.737,2.069-0.468,3.146c0.152,0.607,0.436,1.156,0.821,1.626c0.01,0.001,0.021,0.002,0.032,0.003  c0.448,0.048,0.901,0.094,1.359,0.136c0.043,0.004,0.086,0.008,0.13,0.013c0.287,0.026,0.579,0.05,0.87,0.075  c-0.296,0.579-0.545,1.233-0.738,1.95c-2.884-0.259-5.575-0.612-7.982-1.054c0,0.001-0.001,0.001-0.001,0.002  c-0.055-0.011-0.107-0.021-0.163-0.031c-0.111-0.021-0.221-0.042-0.33-0.063c-0.242-0.046-0.481-0.093-0.716-0.141  c-0.059-0.012-0.12-0.023-0.178-0.035l-0.002-0.002c-0.639-0.133-1.253-0.271-1.834-0.415c-0.363-0.09-0.698,0.594,0.222,1.372  c0.205,0.174,0.544,0.375,0.946,0.584c1.546,1.217,3.605,3.041,3.605,6.396c0,2.001-0.734,3.457-1.654,4.566  c3.965,4.507,9.012,7.633,14.592,8.866c-0.145,0.516-0.209,1.098-0.209,1.668c0,0.025,0.001,0.159,0.014,0.358  c-2.471-0.511-4.855-1.363-7.118-2.545v2.18c0,2.467,5.144,5.215,12.525,5.215c3.32,0,6.187-0.557,8.337-1.394  c-0.42-0.615-0.806-1.243-1.178-1.851c-0.589-0.961-1.149-1.872-1.784-2.68c0.029,0.235,0.046,0.479,0.046,0.716  c0,0.837-0.318,2.358-0.831,2.23l-3.866-1.571c-0.058-0.018-0.11-0.041-0.158-0.067c-0.047,0.026-0.1,0.05-0.158,0.067l-3.866,1.571  c-0.512,0.128-0.831-1.394-0.831-2.23c0-1.061,0.306-2.28,0.831-2.171l3.956,1.814c0.024,0.013,0.046,0.025,0.068,0.038  c0.022-0.013,0.043-0.025,0.068-0.038l3.557-1.632c-0.472-0.417-0.994-0.784-1.596-1.083c-0.224,0.062-0.463,0.097-0.719,0.097  h-0.771c-2.041,0-3.056-2.157-3.056-3.88s1.371-3.055,3.056-3.055h0.771c1.146,0,2.146,0.618,2.669,1.556  c2.758,1.213,4.549,3.154,5.889,5.048C68.092,75.093,74.502,67.266,77.141,57.16z M77.193,52.383  c-2.615-5.164-7.224-8.549-12.646-9.29c-1.676-0.229-3.367-0.192-5.029,0.111c-0.734,0.134-1.455,0.32-2.16,0.554l-1.315,2.703  c1.224-0.608,2.506-1.041,3.835-1.284c1.162-0.211,2.341-0.272,3.517-0.187c0.394-0.132,0.808-0.206,1.231-0.206  c1,0,1.948,0.386,2.662,1.058c0.025,0.009,0.051,0.018,0.075,0.028c0.943-0.21,1.942-0.067,2.792,0.423  c0.883,0.509,1.52,1.337,1.795,2.298c0.937,0.285,1.743,0.915,2.241,1.775c0.3,0.52,0.467,1.093,0.508,1.675  c0.249,0.403,0.487,0.815,0.706,1.247c0.154,0.306,0.443,0.497,0.759,0.54c0.195,0.027,0.399-0.003,0.588-0.099  C77.246,53.479,77.443,52.876,77.193,52.383z M84.448,56.409c-0.008-0.447,0.027-0.87,0.093-1.267  c-0.285,0.209-0.666,0.595-1.047,1.246c-0.853,1.458-0.867,2.786-0.687,3.118c0.226-0.058,0.822-0.434,1.412-1.445  c0.122-0.207,0.224-0.411,0.313-0.611C84.483,57.103,84.453,56.752,84.448,56.409z M86.235,52.511  c-0.028-0.688-0.169-1.486-0.534-2.327c-0.45-1.038-1.085-1.964-1.851-2.761l-1.082,1.398c-0.197,0.255-0.494,0.389-0.794,0.389  c-0.214,0-0.43-0.068-0.612-0.209c-0.438-0.339-0.518-0.968-0.179-1.406l1.133-1.465c-1.599-1.089-3.536-1.726-5.6-1.772  l0.592,3.848c0.027,0.175,0.003,0.345-0.055,0.5c0.368,0.51,0.716,1.041,1.042,1.592c0.554-0.112,1.129-0.171,1.716-0.171  c2.53,0,4.804,1.028,5.854,2.573C85.983,52.622,86.107,52.56,86.235,52.511z M87.941,57.434c-0.026-1.685-0.7-2.83-1.028-3.022  c-0.16,0.165-0.479,0.805-0.46,1.968c0.024,1.688,0.7,2.833,1.027,3.024C87.644,59.238,87.959,58.612,87.941,57.434z M51.199,67.375  c-1.067,0-1.933,0.465-1.933,1.037c0,0.573,0.866,1.038,1.933,1.038c1.068,0,1.934-0.465,1.934-1.038  C53.133,67.84,52.268,67.375,51.199,67.375z M63.268,64.004c0,1.627-0.276,3.122-0.737,4.312c-0.646-0.134-1.367-0.259-2.135-0.363  c-1.367-0.188-2.615-0.277-3.54-0.272c-0.328-1.068-0.52-2.326-0.52-3.676c0-3.867,1.552-7.002,3.466-7.002  S63.268,60.137,63.268,64.004z M61.265,63.475c0.018-0.52-0.145-0.951-0.361-0.963c-0.219-0.012-0.41,0.4-0.428,0.92  s0.144,0.951,0.361,0.963S61.246,63.994,61.265,63.475z M61.144,65.066c-0.03,0.868,0.24,1.589,0.604,1.608s0.684-0.668,0.713-1.536  c0.031-0.868-0.24-1.589-0.604-1.608S61.173,64.198,61.144,65.066z M45.21,67.68c-0.925-0.005-2.173,0.085-3.541,0.272  c-0.767,0.104-1.488,0.229-2.134,0.363c-0.461-1.189-0.738-2.685-0.738-4.312c0-3.867,1.551-7.002,3.465-7.002  c1.915,0,3.466,3.135,3.466,7.002C45.729,65.354,45.538,66.611,45.21,67.68z M43.727,63.475c0.018-0.52-0.144-0.951-0.361-0.963  s-0.41,0.4-0.428,0.92s0.144,0.951,0.362,0.963C43.517,64.406,43.708,63.994,43.727,63.475z M44.319,63.53  c-0.364-0.02-0.684,0.668-0.713,1.536c-0.03,0.868,0.24,1.589,0.603,1.608c0.364,0.02,0.684-0.668,0.714-1.536  S44.683,63.55,44.319,63.53z" transform="matrix(1, 0, 0, 1, 0, 0)" fill="#141445" data-uid="o_f03bjk3i9_9"></path></g><path text="Event" fill="#141445" space="preserve" text-anchor="middle" offset="0.5" font-scale="contain" font-size="48" font-family="Modak" transform="matrix(1.963853481115785, 0, 0, 1.963853481115785, 358.9292063510092, 260.05134331576187)" data-fl-textpath="" font-weight="400" font-style="normal" data-uid="o_f03bjk3i9_10" d="M-51.82890625-30.23L-51.82890625-30.23L-38.30890625-30.23Q-37.62890625-29.11 -37.29890625-27.79Q-36.96890625-26.46 -36.96890625-25.41L-36.96890625-25.41Q-36.96890625-23.04 -37.898906249999996-21.84Q-38.82890625-20.65 -40.48890625-20.65L-40.48890625-20.65L-49.92890625-20.65Q-50.79890625-20.65 -50.79890625-19.97L-50.79890625-19.97L-50.79890625-19.78Q-50.79890625-19.64 -50.74890625-19.59L-50.74890625-19.59L-39.54890625-19.59Q-39.12890625-18.87 -38.82890625-17.77L-38.82890625-17.77Q-38.53890625-16.57 -38.53890625-15.63L-38.53890625-15.63Q-38.53890625-12.84 -39.57890625-11.27L-39.57890625-11.27L-44.65890625-11.27Q-48.21890625-11.27 -49.48890625-11Q-50.74890625-10.73 -51.05890625-10.55L-51.05890625-10.55Q-51.358906250000004-10.34 -51.358906250000004-10.01Q-51.358906250000004-9.68 -51.03890625-9.49L-51.03890625-9.49Q-49.81890625-9.89 -48.47890625-10.05L-48.47890625-10.05Q-46.71890625-10.22 -44.65890625-10.22L-44.65890625-10.22L-38.07890625-10.22Q-36.648906249999996-8.2 -36.648906249999996-5.37L-36.648906249999996-5.37Q-36.648906249999996-3.77 -37.03890625-2.32Q-37.43890625-0.87 -38.23890625 0.02L-38.23890625 0.02L-55.78890625 0.02Q-58.69890625 0.02 -60.45890625-1.38L-60.45890625-1.38Q-62.37890625-2.88 -62.37890625-5.79L-62.37890625-5.79L-62.37890625-28.08Q-62.37890625-29.2 -59.79890625-29.72Q-57.21890625-30.23 -51.82890625-30.23ZM-23.985781250000002-11.46L-23.985781250000002-11.46L-23.985781250000002-10.9Q-23.985781250000002-10.5 -23.96578125-10.34L-23.96578125-10.34Q-23.685781249999998-10.22 -23.42578125-10.22L-23.42578125-10.22Q-22.74578125-10.22 -22.74578125-11.13L-22.74578125-11.13Q-22.74578125-13.52 -22.185781249999998-20.13L-22.185781249999998-20.13Q-21.87578125-23.72 -21.805781250000003-24.35L-21.805781250000003-24.35Q-19.60578125-25.83 -16.52578125-25.83Q-13.44578125-25.83 -11.755781249999998-24.19L-11.755781249999998-24.19Q-10.255781249999998-22.69 -10.255781249999998-20.3L-10.255781249999998-20.3Q-10.255781249999998-18.68 -10.69578125-16.95L-10.69578125-16.95Q-12.87578125-8.53 -15.03578125-3.7L-15.03578125-3.7Q-16.18578125-1.2 -18.52578125-0.28L-18.52578125-0.28Q-20.26578125 0.42 -23.47578125 0.42L-23.47578125 0.42Q-25.185781249999998 0.42 -26.85578125 0.14Q-28.53578125-0.14 -29.42578125-0.52L-29.42578125-0.52Q-32.82578125-7.45 -35.02578125-15.87L-35.02578125-15.87Q-35.75578125-16.59-36.26578125-17.91Q-36.78578125-19.22-36.78578125-20.63L-36.78578125-20.63Q-36.78578125-23.53 -35.37578125-25.62L-35.37578125-25.62Q-35.37578125-25.62 -29.54578125-25.62L-29.54578125-25.62Q-26.47578125-25.62 -24.97578125-23.88L-24.97578125-23.88Q-23.84578125-22.57 -23.51578125-20.06L-23.51578125-20.06Q-23.985781250000002-15.7 -23.985781250000002-11.46ZM 3.9914062500000007 0.73L 3.9914062500000007 0.73Q-2.4985937499999995 0.73 -6.24859375-2.88L-6.24859375-2.88Q-10.08859375-6.52 -10.08859375-12.83Q-10.08859375-19.15 -6.12859375-22.85L-6.12859375-22.85Q-2.46859375-26.3  3.1314062499999995-26.3Q 8.73140625-26.3  12.12140625-23.21Q 15.501406249999999-20.13  15.501406249999999-15.63L 15.501406249999999-15.63Q 15.501406249999999-11.63  12.71140625-9.59L 12.71140625-9.59Q 10.14140625-7.66  5.681406249999998-7.66L 5.681406249999998-7.66Q 2.35140625-7.66  0.06140624999999922-9.05L 0.06140624999999922-9.05Q-0.12859375000000028-8.91 -0.12859375000000028-8.53L-0.12859375000000028-8.53Q-0.12859375000000028-7.83  1.7214062499999994-7.24L 1.7214062499999994-7.24Q 3.571406250000001-6.61  5.931406249999998-6.61Q 8.28140625-6.61  10.221406250000001-7.21Q 12.15140625-7.8  13.321406249999999-8.63L 13.321406249999999-8.63Q 13.89140625-8.13  14.23140625-6.81Q 14.571406249999999-5.48  14.571406249999999-4.39Q 14.571406249999999-3.3  14.35140625-2.46L 14.35140625-2.46Q 12.53140625-0.91  10.60140625-0.26L 10.60140625-0.26Q 7.891406249999999 0.73  3.9914062500000007 0.73ZM 3.69140625-15.14L 3.69140625-15.14Q 4.86140625-15.14  4.86140625-16.03L 4.86140625-16.03Q 4.86140625-16.88  3.6214062499999997-16.88Q 2.3814062499999995-16.88  2.19140625-15.54L 2.19140625-15.54Q 2.85140625-15.14  3.69140625-15.14ZM 41.827031250000005-16.41L 41.75703125-11.6Q 41.75703125-9.91  42.12703125-8.88Q 42.50703125-7.85  43.437031250000004-7.27L 43.437031250000004-7.27Q 43.467031250000005-7.15  43.467031250000005-6.82L 43.467031250000005-6.82L 43.467031250000005-6.4Q 43.467031250000005-3.16  41.59703125-1.37Q 39.73703125 0.42  36.79703125 0.42Q 33.85703125 0.42  32.02703125-1.24L 32.02703125-1.24Q 29.897031249999998-3.14  29.897031249999998-7.01L 29.897031249999998-7.01Q 29.897031249999998-8.65  30.04703125-9.9Q 30.197031250000002-11.16  30.25703125-11.7Q 30.31703125-12.23  30.38703125-12.7Q 30.45703125-13.17  30.45703125-14.09Q 30.45703125-15  30.20703125-15.4Q 29.967031249999998-15.8  29.52703125-15.8Q 29.09703125-15.8  28.767031250000002-15.61L 28.767031250000002-15.61L 29.077031249999997-11.79Q 28.65703125-9.42  28.65703125-6.77Q 28.65703125-4.13  29.84703125-1.95L 29.84703125-1.95Q 27.54703125 0.42  23.40703125 0.42L 23.40703125 0.42Q 21.03703125 0.42  19.29703125-0.82L 19.29703125-0.82Q 17.28703125-2.23  17.28703125-4.55L 17.28703125-4.55L 17.28703125-15.89Q 15.90703125-17.84 15.90703125-20.68Q 15.90703125-23.53  17.28703125-25.62L 17.28703125-25.62L 21.45703125-25.62Q 23.11703125-25.62  24.29703125-24.38L 24.29703125-24.38Q 23.25703125-23.41  23.25703125-22.78L 23.25703125-22.78Q 23.25703125-22.05  24.08703125-22.05L 24.08703125-22.05Q 25.11703125-23.84  27.23703125-25.01Q 29.35703125-26.18  32.04703125-26.18L 32.04703125-26.18Q 36.10703125-26.18  38.63703125-24.19L 38.63703125-24.19Q 41.827031250000005-21.68  41.827031250000005-16.41L 41.827031250000005-16.41ZM 45.80984375-8.04L 45.80984375-14.81L 47.25984375-14.81Q 48.42984375-14.81  48.42984375-15.59L 48.42984375-15.59Q 48.42984375-15.68  48.38984375-15.87L 48.38984375-15.87L 43.13984375-15.87Q 42.61984375-17.51  42.61984375-19.54Q 42.61984375-21.56  42.92984375-22.83L 42.92984375-22.83Q 44.25984375-23.67  46.609843749999996-25.41L 46.609843749999996-25.41Q 47.25984375-27  48.319843750000004-30.47L 48.319843750000004-30.47Q 48.45984375-30.94  48.63984375-31.38L 48.63984375-31.38Q 50.46984375-31.85  52.819843750000004-31.85Q 55.15984375-31.85  57.42984375-31.36L 57.42984375-31.36L 57.42984375-25.62L 61.48984375-25.62Q 62.849843750000005-23.55  62.849843750000005-20.77L 62.849843750000005-20.77Q 62.849843750000005-19.5  62.49984375-18.16Q 62.13984375-16.83  61.48984375-15.89L 61.48984375-15.89L 58.13984375-15.89L 58.13984375-12.35Q 58.13984375-9.35  60.63984375-9.35L 60.63984375-9.35L 61.64984375-9.35Q 62.13984375-7.57  62.13984375-6.26L 62.13984375-6.26Q 62.13984375-3.02  60.11984375-1.3Q 58.08984375 0.42  54.22984375 0.42Q 50.37984375 0.42  48.08984375-1.72Q 45.80984375-3.87  45.80984375-8.04L 45.80984375-8.04Z"></path><path text="Wild" fill="#141445" space="preserve" text-anchor="middle" offset="0.5" font-scale="contain" font-size="48" font-family="Modak" transform="matrix(1.963853481115785, 0, 0, 1.963853481115785, 359.1587236357876, 340.1991075682462)" font-weight="400" font-style="normal" data-fl-textpath="" data-uid="o_f03bjk3i9_11" d="M-35.23609375 0.4L-35.23609375 0.4Q-37.516093749999996 0.4 -39.03609375 0.05L-39.03609375 0.05Q-41.14609375-0.4 -42.12609375-1.34L-42.12609375-1.34Q-44.33609375-6 -45.90609375-11.55L-45.90609375-11.55Q-48.08609375-19.24 -48.94609375-27.42L-48.94609375-27.42Q-47.89609375-28.97 -46.06609375-29.82Q-44.23609375-30.68 -41.98609375-30.68L-41.98609375-30.68Q-38.61609375-30.68 -36.67609375-29.39Q-34.74609375-28.1 -34.74609375-25.71L-34.74609375-25.71Q-34.90609375-23.93 -35.03609375-20.48Q-35.16609375-17.04 -35.16609375-14.25L-35.16609375-14.25Q-35.16609375-13.48 -35.016093749999996-13.04Q-34.86609375-12.61 -34.36609375-12.61L-34.36609375-12.61Q-34.18609375-12.61 -33.90609375-12.68L-33.90609375-12.68Q-33.92609375-12.89 -33.92609375-13.38L-33.92609375-13.38L-33.92609375-14.2Q-33.92609375-17.6 -33.69609375-22.04Q-33.45609375-26.48 -33.12609375-28.66L-33.12609375-28.66Q-30.99609375-29.98 -28.11609375-29.98Q-25.22609375-29.98 -23.47609375-29.18L-23.47609375-29.18Q-21.36609375-28.2 -21.24609375-26.3L-21.24609375-26.3Q-21.36609375-24 -21.67609375-21.77Q-21.99609375-19.55 -22.44609375-16.64Q-22.88609375-13.73 -23.00609375-12.8L-23.00609375-12.8Q-22.81609375-12.7 -22.51609375-12.7Q-22.20609375-12.7 -21.94609375-12.94Q-21.69609375-13.17 -21.52609375-14.06L-21.52609375-14.06Q-20.79609375-17.81 -20.33609375-21.97Q-19.86609375-26.13 -19.72609375-29.23L-19.72609375-29.23Q-17.56609375-30.68 -13.766093750000003-30.68L-13.766093750000003-30.68Q-10.696093750000003-30.68 -8.866093749999997-29.05Q-7.046093749999997-27.42 -7.046093749999997-24.68L-7.046093749999997-24.68Q-7.046093749999997-22.85 -8.776093750000001-15.09L-8.776093750000001-15.09Q-9.666093750000002-11.02 -10.486093750000002-8.12Q-11.306093750000002-5.23 -11.826093749999998-4.05L-11.826093749999998-4.05Q-12.906093749999997-1.69 -15.046093749999997-0.64Q-17.19609375 0.4 -20.51609375 0.4L-20.51609375 0.4Q-21.85609375 0.4 -23.60609375 0Q-25.34609375-0.4 -26.26609375-0.89L-26.26609375-0.89Q-26.72609375-1.62 -27.31609375-3.09Q-27.90609375-4.57 -28.04609375-5.32L-28.04609375-5.32Q-28.95609375-5.3 -28.95609375-4.34L-28.95609375-4.34Q-28.95609375-3.59 -28.22609375-1.57L-28.22609375-1.57Q-30.69609375 0.4 -35.23609375 0.4ZM 5.921093750000001-21.09L 5.921093750000001-21.09L 5.921093750000001-11.81Q 5.921093750000001-8.32  7.60109375-7.27L 7.60109375-7.27Q 7.63109375-7.15  7.63109375-6.82L 7.63109375-6.82L 7.63109375-6.4Q 7.63109375-2.95  5.751093750000001-1.22L 5.751093750000001-1.22Q 4.02109375 0.42  1.12109375 0.42Q-1.7689062499999997 0.42 -3.64890625-1.22L-3.64890625-1.22Q-6.00890625-3.3 -6.00890625-7.31L-6.00890625-7.31L-6.00890625-22.55Q-5.58890625-22.85 -5.09890625-23.04Q-4.60890625-23.23 -4.0689062499999995-23.51L-4.0689062499999995-23.51Q-5.07890625-24.02 -5.89890625-25.3Q-6.71890625-26.58 -6.71890625-28.29L-6.71890625-28.29Q-6.71890625-31.24 -4.768906250000001-33.12Q-2.82890625-34.99  0.0010937499999998934-34.99Q 2.8210937499999993-34.99  4.731093749999999-33.08Q 6.64109375-31.17  6.64109375-28.29L 6.64109375-28.29Q 6.64109375-25.97  5.19109375-24.22Q 3.741093749999999-22.48  1.6510937499999994-22.03L 1.6510937499999994-22.03Q 1.6510937499999994-21.14  2.331093750000001-21.14L 2.331093750000001-21.14Q 3.53109375-21.14  4.77109375-22.08L 4.77109375-22.08Q 5.71109375-21.35  5.921093750000001-21.09ZM 20.59296875-28.29L 20.59296875-28.29L 20.59296875-11.81Q 20.59296875-8.32  22.27296875-7.27L 22.27296875-7.27Q 22.302968749999998-7.15  22.302968749999998-6.82L 22.302968749999998-6.82L 22.302968749999998-6.4Q 22.302968749999998-3.05  20.602968750000002-1.31Q 18.90296875 0.42  15.78296875 0.42Q 12.672968749999999 0.42  10.84296875-1.31L 10.84296875-1.31Q 8.66296875-3.38  8.66296875-7.55L 8.66296875-7.55L 8.66296875-31.9Q 11.12296875-33.4  14.29296875-33.4Q 17.47296875-33.4  19.032968750000002-32.05Q 20.59296875-30.7  20.59296875-28.29ZM 36.22328125-16.62L 36.22328125-16.62Q 35.99328125-16.85  35.66328125-16.85L 35.66328125-16.85Q 35.14328125-16.85  34.95328125-16.11Q 34.77328125-15.38  34.77328125-13.13L 34.77328125-13.13L 34.77328125-10.73Q 34.77328125-10.1  34.93328125-9.84Q 35.093281250000004-9.59  35.47328125-9.59Q 35.843281250000004-9.59  36.01328125-9.75L 36.01328125-9.75L 36.01328125-12.89Q 36.01328125-15.19  36.22328125-16.62ZM 34.53328125-30.47L 34.53328125-30.47Q 35.77328125-31.92  37.27328125-32.66Q 38.77328125-33.4  41.093281250000004-33.4L 41.093281250000004-33.4Q 43.91328125-33.4  45.66328125-31.83L 45.66328125-31.83Q 47.47328125-30.14  47.47328125-27.28L 47.47328125-27.28L 47.47328125-11.81Q 47.47328125-8.32  49.16328125-7.27L 49.16328125-7.27Q 49.18328125-7.15  49.18328125-6.82L 49.18328125-6.82L 49.18328125-6.4Q 49.18328125-3.07  47.16328125-1.22L 47.16328125-1.22Q 45.383281249999996 0.42  42.76328125 0.42L 42.76328125 0.42Q 40.93328125 0.42  39.593281250000004-0.35L 39.593281250000004-0.35Q 38.02328125-1.24  37.39328125-2.79L 37.39328125-2.79Q 36.593281250000004-2.79  36.593281250000004-2.02L 36.593281250000004-2.02Q 36.593281250000004-1.66  36.86328125-1.21Q 37.133281249999996-0.75  37.60328125-0.4L 37.60328125-0.4Q 36.22328125 0.42  34.02328125 0.42L 34.02328125 0.42Q 31.04328125 0.42  28.45328125-0.95Q 25.86328125-2.32  24.34328125-5.09L 24.34328125-5.09Q 22.58328125-8.25  22.58328125-12.75L 22.58328125-12.75Q 22.58328125-18.75  25.94328125-22.17Q 29.31328125-25.59  34.53328125-25.59L 34.53328125-25.59Q 37.633281249999996-25.59  39.92328125-24.42L 39.92328125-24.42Q 40.18328125-24.68  40.18328125-24.96L 40.18328125-24.96Q 40.18328125-25.66  38.52328125-26.16Q 36.85328125-26.65  35.16328125-26.65L 35.16328125-26.65Q 35.16328125-29.04  34.53328125-30.47Z"></path></svg>